<?xml version="1.0" encoding="UTF-8"?>
<svg viewBox="0 0 148 148" version="1.1" xmlns="http://www.w3.org/2000/svg" xmlns:xlink="http://www.w3.org/1999/xlink">
    <g id="Page-1" stroke="none" stroke-width="1" fill="none" fill-rule="evenodd">
        <g id="Artboard" transform="translate(-1.000000, -1.000000)">
            <g id="1">
                <g id="Group-4" fill="#CD4037">
                    <path d="M82.6536686,13.1702534 L113.308272,25.8678059 C118.208834,27.897685 122.102315,31.7911661 124.132194,36.6917279 L136.829747,67.3463314 C138.859626,72.2468931 138.859626,77.7531069 136.829747,82.6536686 L124.132194,113.308272 C122.102315,118.208834 118.208834,122.102315 113.308272,124.132194 L82.6536686,136.829747 C77.7531069,138.859626 72.2468931,138.859626 67.3463314,136.829747 L36.6917279,124.132194 C31.7911661,122.102315 27.897685,118.208834 25.8678059,113.308272 L13.1702534,82.6536686 C11.1403742,77.7531069 11.1403742,72.2468931 13.1702534,67.3463314 L25.8678059,36.6917279 C27.897685,31.7911661 31.7911661,27.897685 36.6917279,25.8678059 L67.3463314,13.1702534 C72.2468931,11.1403742 77.7531069,11.1403742 82.6536686,13.1702534 Z" id="Polygon" fill-opacity="0.11"></path>
                    <path d="M82.6536686,8.17025336 L116.843806,22.332272 C121.744368,24.3621511 125.637849,28.2556322 127.667728,33.156194 L141.829747,67.3463314 C143.859626,72.2468931 143.859626,77.7531069 141.829747,82.6536686 L127.667728,116.843806 C125.637849,121.744368 121.744368,125.637849 116.843806,127.667728 L82.6536686,141.829747 C77.7531069,143.859626 72.2468931,143.859626 67.3463314,141.829747 L33.156194,127.667728 C28.2556322,125.637849 24.3621511,121.744368 22.332272,116.843806 L8.17025336,82.6536686 C6.14037422,77.7531069 6.14037422,72.2468931 8.17025336,67.3463314 L22.332272,33.156194 C24.3621511,28.2556322 28.2556322,24.3621511 33.156194,22.332272 L67.3463314,8.17025336 C72.2468931,6.14037422 77.7531069,6.14037422 82.6536686,8.17025336 Z" id="Polygon-Copy" fill-opacity="0.08"></path>
                    <path d="M82.6536686,3.17025336 L120.37934,18.7967381 C125.279902,20.8266172 129.173383,24.7200983 131.203262,29.6206601 L146.829747,67.3463314 C148.859626,72.2468931 148.859626,77.7531069 146.829747,82.6536686 L131.203262,120.37934 C129.173383,125.279902 125.279902,129.173383 120.37934,131.203262 L82.6536686,146.829747 C77.7531069,148.859626 72.2468931,148.859626 67.3463314,146.829747 L29.6206601,131.203262 C24.7200983,129.173383 20.8266172,125.279902 18.7967381,120.37934 L3.17025336,82.6536686 C1.14037422,77.7531069 1.14037422,72.2468931 3.17025336,67.3463314 L18.7967381,29.6206601 C20.8266172,24.7200983 24.7200983,20.8266172 29.6206601,18.7967381 L67.3463314,3.17025336 C72.2468931,1.14037422 77.7531069,1.14037422 82.6536686,3.17025336 Z" id="Polygon-Copy-2" fill-opacity="0.05"></path>
                    <path d="M78.8268343,16.5851267 L113.599573,30.9884665 C116.049853,32.003406 117.996594,33.9501466 119.011534,36.4004275 L133.414873,71.1731657 C134.429813,73.6234465 134.429813,76.3765535 133.414873,78.8268343 L119.011534,113.599573 C117.996594,116.049853 116.049853,117.996594 113.599573,119.011534 L78.8268343,133.414873 C76.3765535,134.429813 73.6234465,134.429813 71.1731657,133.414873 L36.4004275,119.011534 C33.9501466,117.996594 32.003406,116.049853 30.9884665,113.599573 L16.5851267,78.8268343 C15.5701871,76.3765535 15.5701871,73.6234465 16.5851267,71.1731657 L30.9884665,36.4004275 C32.003406,33.9501466 33.9501466,32.003406 36.4004275,30.9884665 L71.1731657,16.5851267 C73.6234465,15.5701871 76.3765535,15.5701871 78.8268343,16.5851267 Z" id="Polygon"></path>
                </g>
                <text font-family="Montserrat-SemiBold, Montserrat" font-size="70" font-weight="600" letter-spacing="2.12121212" fill="#FFFFFF">
                    <tspan x="61.1043939" y="100">1</tspan>
                </text>
            </g>
        </g>
    </g>
</svg>
