<?xml version="1.0" encoding="UTF-8"?>
<svg viewBox="0 0 75 75" version="1.1" xmlns="http://www.w3.org/2000/svg" xmlns:xlink="http://www.w3.org/1999/xlink">
    <g id="Page-1" stroke="none" stroke-width="1" fill="none" fill-rule="evenodd">
        <g id="Artboard" transform="translate(-563.000000, -579.000000)">
            <g id="2-uplain" transform="translate(563.000000, 579.000000)">
                <g id="Segments-circle">
                    <path d="M37.5,0 C50.8928571,0 63.2785714,7.14642857 69.975,18.75 C76.6714286,30.3535714 76.6714286,44.6464286 69.975,56.25 C63.2785714,67.8535714 50.8928571,75 37.5,75 C24.1071429,75 11.7214286,67.8535714 5.025,56.25 C-1.67142857,44.6464286 -1.67142857,30.3535714 5.025,18.75 C11.7214286,7.14642857 24.1071429,0 37.5,0 L37.5,16.0714286 C29.8392857,16.0714286 22.7678571,20.1535714 18.9428571,26.7857143 C15.1178571,33.4178571 15.1178571,41.5821429 18.9428571,48.2142857 C22.7678571,54.8464286 29.8392857,58.9285714 37.5,58.9285714 C45.1607143,58.9285714 52.2321429,54.8464286 56.0571429,48.2142857 C59.8821429,41.5821429 59.8821429,33.4178571 56.0571429,26.7857143 C52.2321429,20.1535714 45.1607143,16.0714286 37.5,16.0714286 L37.5,0 Z" id="Base-plate" fill="#F7E5E4"></path>
                    <path d="M37.625,0.125206261 L37.625,15.9467893 C41.3712188,15.9684204 45.0425562,16.9621552 48.2767359,18.8345752 C54.9111454,22.6608825 59.0090703,29.7173453 59.0532112,37.375 L74.8747905,37.375 C74.8529537,30.8632912 73.1251655,24.4590105 69.8667351,18.8124797 C63.2149304,7.28623249 50.9281342,0.169526535 37.625,0.125208205 Z" id="Segment-1" stroke="#FFFFFF" stroke-width="0.25" fill="#F7E5E4"></path>
                    <path d="M74.8747937,37.625 L59.0532107,37.625 C59.0315796,41.3712188 58.0378448,45.0425562 56.1654248,48.2767359 C52.3391175,54.9111454 45.2826547,59.0090703 37.625,59.0532112 L37.625,74.8747905 C44.1367088,74.8529537 50.5409895,73.1251655 56.1875203,69.8667351 C67.7137675,63.2149304 74.8304735,50.9281342 74.8747918,37.625 Z" id="Segment-2" stroke="#FFFFFF" stroke-width="0.25" fill="#F7E5E4"></path>
                    <path d="M37.375,74.8747937 L37.375,59.0532107 C33.6287812,59.0315796 29.9574438,58.0378448 26.7232641,56.1654248 C20.0888546,52.3391175 15.9909297,45.2826547 15.9467888,37.625 L0.125209498,37.625 C0.147046339,44.1367088 1.87483451,50.5409895 5.13326488,56.1875203 C11.7850696,67.7137675 24.0718658,74.8304735 37.375,74.8747918 Z" id="Segment-3" stroke="#FFFFFF" stroke-width="0.25" fill="#B71C1C"></path>
                    <path d="M0.125206261,37.375 L15.9467893,37.375 C15.9684204,33.6287812 16.9621552,29.9574438 18.8345752,26.7232641 C22.6608825,20.0888546 29.7173453,15.9909297 37.375,15.9467888 L37.375,0.125209498 C30.8632912,0.147046339 24.4590105,1.87483451 18.8124797,5.13326488 C7.28623249,11.7850696 0.169526535,24.0718658 0.125208205,37.375 Z" id="Segment-4" stroke="#FFFFFF" stroke-width="0.25" fill="#B71C1C"></path>
                    <text id="2" font-family="Montserrat-ExtraBold, Montserrat" font-size="30" font-weight="800" letter-spacing="0.909090909" fill="#B71C1C">
                        <tspan x="29" y="48">2</tspan>
                    </text>
                </g>
            </g>
        </g>
    </g>
</svg>
