<?xml version="1.0" encoding="UTF-8"?>
<svg viewBox="0 0 47 70" version="1.1" xmlns="http://www.w3.org/2000/svg" xmlns:xlink="http://www.w3.org/1999/xlink">
    <g id="Page-1" stroke="none" stroke-width="1" fill="none" fill-rule="evenodd">
        <g id="dashboard" transform="translate(-1693.000000, -219.000000)" fill="#B93D34" fill-rule="nonzero">
            <g id="header-plus-menu">
                <g id="top-section" transform="translate(420.000000, 168.000000)">
                    <g id="top-id-section" transform="translate(938.000000, 0.000000)">
                        <g id="id-card" transform="translate(335.000000, 51.000000)">
                            <path d="M43.475,4.66554141 L29.375,4.66554141 L31.49,1.86549318 C31.8801,1.35098432 31.77435,0.619471723 31.255,0.233298405 C30.736825,-0.152874912 30.0001,-0.0490397906 29.611175,0.466635758 L26.4375,4.66554141 L20.70115,4.66554141 L18.67545,0.643972145 C18.38405,0.0676288855 17.67905,-0.163375093 17.0986,0.122463163 C16.51815,0.410634793 16.28315,1.11181354 16.573375,1.6881568 L18.07385,4.66554141 L3.525,4.66554141 C1.58155,4.66554141 0,6.23590179 0,8.16560169 L0,66.4999397 C0,68.4296396 1.58155,70 3.525,70 L43.475,70 C45.41845,70 47,68.4296396 47,66.4999397 L47,8.16560169 C47,6.23590179 45.41845,4.66554141 43.475,4.66554141 Z M44.65,66.4999397 C44.65,67.1439508 44.1236,67.6666265 43.475,67.6666265 L3.525,67.6666265 C2.8764,67.6666265 2.35,67.1439508 2.35,66.4999397 L2.35,8.16560169 C2.35,7.5215906 2.8764,6.99891493 3.525,6.99891493 L19.24885,6.99891493 L20.42385,9.33228845 C19.43685,10.1886365 18.8,11.4311579 18.8,12.8323487 C18.8,15.4060597 20.90795,17.4990958 23.5,17.4990958 C26.09205,17.4990958 28.2,15.4060597 28.2,12.8323487 C28.2,10.2586377 26.09205,8.16560169 23.5,8.16560169 C23.162775,8.16560169 22.83495,8.20410235 22.5177,8.27177019 L21.87615,6.99891493 L43.475,6.99891493 C44.1236,6.99891493 44.65,7.5215906 44.65,8.16560169 L44.65,66.4999397 Z M21.5401,11.55016 L22.448375,13.3538577 C22.655175,13.7633648 23.06995,13.9990355 23.501175,13.9990355 C23.677425,13.9990355 23.8572,13.9593681 24.025225,13.8765334 C24.605675,13.5883618 24.840675,12.887183 24.55045,12.3108398 L23.6457,10.5141421 C24.8724,10.5899768 25.85,11.5956608 25.85,12.8323487 C25.85,14.1192042 24.796025,15.1657223 23.5,15.1657223 C22.203975,15.1657223 21.15,14.1192042 21.15,12.8323487 C21.15,12.3586739 21.294525,11.918833 21.5401,11.55016 Z" id="Shape"></path>
                            <path d="M34.8181818,48 L11.1818182,48 C10.5282727,48 10,48.447 10,49 C10,49.553 10.5282727,50 11.1818182,50 L34.8181818,50 C35.4717273,50 36,49.553 36,49 C36,48.447 35.4717273,48 34.8181818,48 Z" id="Path"></path>
                            <path d="M34.8181818,54 L11.1818182,54 C10.5282727,54 10,54.447 10,55 C10,55.553 10.5282727,56 11.1818182,56 L34.8181818,56 C35.4717273,56 36,55.553 36,55 C36,54.447 35.4717273,54 34.8181818,54 Z" id="Path"></path>
                            <path d="M34.8181818,60 L11.1818182,60 C10.5282727,60 10,60.447 10,61 C10,61.553 10.5282727,62 11.1818182,62 L34.8181818,62 C35.4717273,62 36,61.553 36,61 C36,60.447 35.4717273,60 34.8181818,60 Z" id="Path"></path>
                            <path d="M30.2,43 L35,43 L35,20 L11,20 L11,43 L15.8,43 L30.2,43 Z M18.2,40.7 C18.2,38.1631 20.3528,36.1 23,36.1 C25.6472,36.1 27.8,38.1631 27.8,40.7 L18.2,40.7 Z M19.4,30.35 C19.4,28.4479 21.0152,26.9 23,26.9 C24.9848,26.9 26.6,28.4479 26.6,30.35 C26.6,32.2521 24.9848,33.8 23,33.8 C21.0152,33.8 19.4,32.2521 19.4,30.35 Z M13.4,40.7 L13.4,22.3 L32.6,22.3 L32.6,40.7 L30.2,40.7 C30.2,38.2068 28.8092,36.02525 26.7356,34.81315 C28.1048,33.75745 29,32.1601 29,30.35 C29,27.17945 26.3084,24.6 23,24.6 C19.6916,24.6 17,27.17945 17,30.35 C17,32.1601 17.8952,33.7586 19.2644,34.81315 C17.1908,36.02525 15.8,38.2068 15.8,40.7 L13.4,40.7 Z" id="Shape"></path>
                        </g>
                    </g>
                </g>
            </g>
        </g>
    </g>
</svg>
