<?xml version="1.0" encoding="UTF-8"?>
<svg viewBox="0 0 35 35" version="1.1" xmlns="http://www.w3.org/2000/svg" xmlns:xlink="http://www.w3.org/1999/xlink">
    <g id="Page-1" stroke="none" stroke-width="1" fill="none" fill-rule="evenodd">
        <g id="landing" transform="translate(-484.000000, -2802.000000)" fill="#c7352a" fill-rule="nonzero">
            <g id="faq-section" transform="translate(481.000000, 2700.000000)">
                <g id="faq-item" transform="translate(3.000000, 102.000000)">
                    <g id="question">
                        <g id="information">
                            <circle id="Oval" cx="17.85" cy="25.55" r="1.75"></circle>
                            <path d="M17.5,0 C7.82824219,0 0,7.82694336 0,17.5 C0,27.1717578 7.82694336,35 17.5,35 C27.1717578,35 35,27.1730566 35,17.5 C35,7.82824219 27.1730566,0 17.5,0 Z M17.5,32.265625 C9.33946289,32.265625 2.734375,25.6616309 2.734375,17.5 C2.734375,9.33946289 9.33836914,2.734375 17.5,2.734375 C25.6605371,2.734375 32.265625,9.33836914 32.265625,17.5 C32.265625,25.6605371 25.6616309,32.265625 17.5,32.265625 Z" id="Shape"></path>
                            <path d="M17.5,8.4 C14.41216,8.4 11.9,10.91216 11.9,14 C11.9,14.77322 12.52678,15.4 13.3,15.4 C14.07322,15.4 14.7,14.77322 14.7,14 C14.7,12.45608 15.95608,11.2 17.5,11.2 C19.04392,11.2 20.3,12.45608 20.3,14 C20.3,15.54392 19.04392,16.8 17.5,16.8 C16.72678,16.8 16.1,17.42678 16.1,18.2 L16.1,21.7 C16.1,22.47322 16.72678,23.1 17.5,23.1 C18.27322,23.1 18.9,22.47322 18.9,21.7 L18.9,19.42283 C21.31262,18.79962 23.1,16.60463 23.1,14 C23.1,10.91216 20.58784,8.4 17.5,8.4 Z" id="Path"></path>
                        </g>
                    </g>
                </g>
            </g>
        </g>
    </g>
</svg>
