<?xml version="1.0" encoding="UTF-8"?>
<svg width="88px" height="88px" viewBox="0 0 88 88" version="1.1" xmlns="http://www.w3.org/2000/svg" xmlns:xlink="http://www.w3.org/1999/xlink">
    <!-- Generator: Sketch 56.3 (81716) - https://sketch.com -->
    <title>calendar-with-a-clock-time-tools</title>
    <desc>Created with Sketch.</desc>
    <defs>
        <filter x="-15.0%" y="-15.0%" width="130.0%" height="130.0%" filterUnits="objectBoundingBox" id="filter-1">
            <feOffset dx="0" dy="2" in="SourceAlpha" result="shadowOffsetOuter1"></feOffset>
            <feGaussianBlur stdDeviation="2" in="shadowOffsetOuter1" result="shadowBlurOuter1"></feGaussianBlur>
            <feColorMatrix values="0 0 0 0 0   0 0 0 0 0   0 0 0 0 0  0 0 0 0.5 0" type="matrix" in="shadowBlurOuter1" result="shadowMatrixOuter1"></feColorMatrix>
            <feMerge>
                <feMergeNode in="shadowMatrixOuter1"></feMergeNode>
                <feMergeNode in="SourceGraphic"></feMergeNode>
            </feMerge>
        </filter>
    </defs>
    <g id="Page-1" stroke="none" stroke-width="1" fill="none" fill-rule="evenodd">
        <g id="landing" transform="translate(-1431.000000, -3441.000000)" fill="#F1CFCC" fill-rule="nonzero">
            <g id="Group-11" transform="translate(356.000000, 3438.000000)">
                <g id="Group-10" transform="translate(1048.000000, 5.000000)">
                    <g id="calendar-with-a-clock-time-tools" filter="url(#filter-1)" transform="translate(31.000000, 0.000000)">
                        <path d="M9.99993817,12.5002422 L9.99993817,2.50001546 C9.99993817,1.11802446 11.1179672,0 12.5002937,0 C13.8819606,0 14.9999897,1.11802446 14.9999897,2.50001546 L14.9999897,12.5002422 C14.9999897,13.8819034 13.8819606,14.9999279 12.5002937,14.9999279 C11.1179672,15.0000927 9.99993817,13.8819034 9.99993817,12.5002422 Z M52.500541,15.0000927 C53.8818782,15.0000927 55.0005668,13.8820683 55.0005668,12.500407 L55.0005668,2.50001546 C55.0005668,1.11802446 53.8818782,0 52.500541,0 C51.1185443,0 49.9996909,1.11802446 49.9996909,2.50001546 L49.9996909,12.5002422 C49.9996909,13.8819034 51.1185443,15.0000927 52.500541,15.0000927 Z M80,59.9993817 C80,71.0454172 71.0452154,80 59.9999588,80 C48.9555266,80 40.0000824,71.0454172 40.0000824,59.9993817 C40.0000824,48.954995 48.9553617,39.9999176 59.9999588,39.9999176 C71.0452154,39.9999176 80,48.9548301 80,59.9993817 Z M75.000608,59.9993817 C75.000608,51.7290345 68.2719889,44.9996187 60.0001237,44.9996187 C51.7289179,44.9996187 45.0002988,51.7288696 45.0002988,59.9993817 C45.0002988,68.2713777 51.7289179,74.9998042 60.0001237,74.9998042 C68.2719889,74.9998042 75.000608,68.2713777 75.000608,59.9993817 Z M20.0002061,30.0000206 L9.99993817,30.0000206 L9.99993817,39.9999176 L20.0002061,39.9999176 L20.0002061,30.0000206 Z M9.99993817,55.0000103 L20.0002061,55.0000103 L20.0002061,44.9996187 L9.99993817,44.9996187 L9.99993817,55.0000103 Z M24.9999279,39.9999176 L35.0003607,39.9999176 L35.0003607,30.0000206 L24.9999279,30.0000206 L24.9999279,39.9999176 Z M24.9999279,55.0000103 L35.0003607,55.0000103 L35.0003607,44.9996187 L24.9999279,44.9996187 L24.9999279,55.0000103 Z M5.0002164,59.5022804 L5.0002164,24.9998248 L60.0001237,24.9998248 L60.0001237,35.0000515 L65.0003401,35.0000515 L65.0003401,15.4983481 C65.0003401,12.4611665 62.5779712,9.99989695 59.5852938,9.99989695 L57.5000979,9.99989695 L57.5000979,12.500407 C57.5000979,15.2540019 55.258434,17.5002731 52.5007059,17.5002731 C49.7421534,17.5002731 47.5006544,15.2540019 47.5006544,12.500407 L47.5006544,9.99989695 L17.4998506,9.99989695 L17.4998506,12.500407 C17.4998506,15.2540019 15.2586813,17.5002731 12.5004586,17.5002731 C9.74157635,17.5002731 7.50024216,15.2540019 7.50024216,12.500407 L7.50024216,9.99989695 L5.41751939,9.99989695 C2.4246771,9.99989695 0,12.4611665 0,15.4983481 L0,59.5024453 C0,62.5295695 2.4246771,65.0004019 5.41751939,65.0004019 L35.0003607,65.0004019 L35.0003607,59.9995466 L5.41751939,59.9995466 C5.19097877,59.9993817 5.0002164,59.7654226 5.0002164,59.5022804 Z M49.9996909,39.9999176 L49.9996909,30.0000206 L40.0002473,30.0000206 L40.0002473,39.9999176 L49.9996909,39.9999176 Z M67.5002009,59.9993817 L59.9999588,59.9993817 L59.9999588,52.4991705 C59.9999588,51.1180038 58.8819297,49.9999794 57.499933,49.9999794 C56.1179363,49.9999794 55.0005668,51.1180038 55.0005668,52.4991705 L55.0005668,62.5002216 C55.0005668,63.881553 56.1179363,65.000237 57.499933,65.000237 L67.5002009,65.000237 C68.8821976,65.000237 70.0002267,63.881553 70.0002267,62.5002216 C70.0002267,61.1182306 68.8821976,59.9993817 67.5002009,59.9993817 Z" id="Shape"></path>
                    </g>
                </g>
            </g>
        </g>
    </g>
</svg>