<?xml version="1.0" encoding="UTF-8"?>
<svg viewBox="0 0 63 62" version="1.1" xmlns="http://www.w3.org/2000/svg" xmlns:xlink="http://www.w3.org/1999/xlink">
    <g id="Page-1" stroke="none" stroke-width="1" fill="none" fill-rule="evenodd" opacity="0.3">
        <g id="sign-in" transform="translate(-603.000000, -391.000000)" fill="#FFFFFF" fill-rule="nonzero">
            <g id="form" transform="translate(573.000000, 242.000000)">
                <g id="Group-4" transform="translate(0.666667, 68.000000)">
                    <g id="Group-2" transform="translate(0.000000, 65.000000)">
                        <path d="M61,16 C43.8801765,16 30,29.8801765 30,47 C30,64.1217742 43.8801765,78 61,78 C78.1217742,78 92,64.1237249 92,47 C92,29.8801765 78.1215575,16 61,16 Z M61,72 C47.1923345,72 36,60.8076655 36,47 C36,33.1923345 47.1923345,22 61,22 C74.8076655,22 86,33.1923345 86,47 C86,60.8076655 74.8076655,72 61,72 Z M61,30 C58.722923,30 57,31.1474887 57,33.0009426 L57,50.0009892 C57,51.8563749 58.7227008,53 61,53 C63.221506,53 65,51.8085092 65,50.0009892 L65,33.0009426 C64.9997777,31.1914908 63.221506,30 61,30 Z M61.0010085,57 C58.7952094,57 57,58.7948072 57,61.0019046 C57,63.2051928 58.7952094,65 61.0010085,65 C63.2068077,65 65,63.2051928 65,61.0019046 C64.9997759,58.7945831 63.2068077,57 61.0010085,57 Z" id="Shape"></path>
                    </g>
                </g>
            </g>
        </g>
    </g>
</svg>
