<?xml version="1.0" encoding="UTF-8"?>
<svg viewBox="0 0 90 107" version="1.1" xmlns="http://www.w3.org/2000/svg" xmlns:xlink="http://www.w3.org/1999/xlink">
    <!-- Generator: Sketch 56.3 (81716) - https://sketch.com -->
    <title>Group</title>
    <desc>Created with Sketch.</desc>
    <g id="Page-1" stroke="none" stroke-width="1" fill="none" fill-rule="evenodd">
        <g id="landing" transform="translate(-913.000000, -969.000000)" fill-rule="nonzero">
            <g id="first-section" transform="translate(50.000000, 0.000000)">
                <g id="Group" transform="translate(863.000000, 969.000000)">
                    <g id="down-arrow-2" transform="translate(0.000000, 59.000000)" fill="#C3291B">
                        <g id="down-arrow">
                            <path d="M89.0791402,0.927536232 C87.8386996,-0.309178744 85.8229837,-0.309178744 84.5825431,0.927536232 L45.0434991,40.4251208 L5.4269276,0.927536232 C4.18648701,-0.309178744 2.17077104,-0.309178744 0.930330446,0.927536232 C-0.310110149,2.16425121 -0.310110149,4.17391304 0.930330446,5.41062802 L42.717673,47.0724638 C43.3378933,47.6908213 44.1131687,48 44.9659716,48 C45.7412469,48 46.5940498,47.6908213 47.2142701,47.0724638 L89.0016127,5.41062802 C90.3195808,4.17391304 90.3195808,2.16425121 89.0791402,0.927536232 Z" id="Path"></path>
                        </g>
                    </g>
                    <g id="down-arrow-copy" opacity="0.66" transform="translate(10.000000, 30.000000)" fill="#C2291A">
                        <path d="M69.2837757,0.721417069 C68.3189886,-0.240472356 66.7512095,-0.240472356 65.7864224,0.721417069 L35.0338326,31.4417606 L4.22094369,0.721417069 C3.25615656,-0.240472356 1.68837748,-0.240472356 0.723590347,0.721417069 C-0.241196782,1.68330649 -0.241196782,3.24637681 0.723590347,4.20826624 L33.2248568,36.6119163 C33.7072503,37.092861 34.3102423,37.3333333 34.9735334,37.3333333 C35.5765254,37.3333333 36.2398165,37.092861 36.7222101,36.6119163 L69.2234765,4.20826624 C70.2485629,3.24637681 70.2485629,1.68330649 69.2837757,0.721417069 Z" id="Path"></path>
                    </g>
                    <g id="down-arrow-copy-2" transform="translate(20.000000, 0.000000)" fill="#C42B1D" opacity="0.33">
                        <path d="M49.4884112,0.515297907 C48.7992776,-0.171765969 47.6794354,-0.171765969 46.9903017,0.515297907 L25.0241662,22.4584004 L3.01495978,0.515297907 C2.32582612,-0.171765969 1.20598391,-0.171765969 0.516850248,0.515297907 C-0.172283416,1.20236178 -0.172283416,2.31884058 0.516850248,3.00590446 L23.7320405,26.1513688 C24.0766074,26.4949007 24.5073159,26.6666667 24.9810953,26.6666667 C25.4118039,26.6666667 25.8855832,26.4949007 26.2301501,26.1513688 L49.4453404,3.00590446 C50.1775449,2.31884058 50.1775449,1.20236178 49.4884112,0.515297907 Z" id="Path"></path>
                    </g>
                </g>
            </g>
        </g>
    </g>
</svg>
