<?xml version="1.0" encoding="UTF-8"?>
<svg viewBox="0 0 82 69" version="1.1" xmlns="http://www.w3.org/2000/svg" xmlns:xlink="http://www.w3.org/1999/xlink">
    <g id="Page-1" stroke="none" stroke-width="1" fill="none" fill-rule="evenodd">
        <g id="dashboard" transform="translate(-1180.000000, -220.000000)" fill="#B93D34" fill-rule="nonzero">
            <g id="header-plus-menu">
                <g id="top-section" transform="translate(420.000000, 168.000000)">
                    <g id="top-refs-section" transform="translate(470.000000, 0.000000)">
                        <g id="multiple-users-silhouette" transform="translate(290.000000, 52.000000)">
                            <path d="M49.4834644,11.8429552 C53.2749282,14.2199368 55.933558,18.2422849 56.4175964,22.9113194 C57.9638587,23.6337253 59.679995,24.0491599 61.4994883,24.0491599 C68.1419693,24.0491599 73.5257457,18.6659054 73.5257457,12.0250916 C73.5257457,5.38325449 68.1419693,0 61.4994883,0 C54.9204543,0.00204647576 49.5837514,5.2891166 49.4834644,11.8429552 Z M41.6047922,36.4641051 C48.2472732,36.4641051 53.6310495,31.0798274 53.6310495,24.4390135 C53.6310495,17.7981997 48.2462498,12.4149452 41.6047922,12.4149452 C34.9633346,12.4149452 29.5764882,17.7992229 29.5764882,24.4400368 C29.5764882,31.0808506 34.9633346,36.4641051 41.6047922,36.4641051 Z M46.7061275,37.2837187 L36.5014102,37.2837187 C28.0107825,37.2837187 21.1032572,44.1915976 21.1032572,52.6814023 L21.1032572,65.1597882 L21.1349807,65.3552267 L21.9945838,65.6243382 C30.0973668,68.1558287 37.1369025,69 42.9310371,69 C54.2481218,69 60.8077125,65.773731 61.2119306,65.5680601 L62.0152502,65.1618347 L62.1012116,65.1618347 L62.1012116,52.6814023 C62.1042805,44.1915976 55.1967553,37.2837187 46.7061275,37.2837187 Z M66.6028703,24.8697967 L56.47695,24.8697967 C56.3674529,28.9207955 54.6380132,32.5686385 51.9026332,35.1922204 C59.4497442,37.4361811 64.971671,44.434105 64.971671,52.6998206 L64.971671,56.5451485 C74.9696743,56.1788294 80.731062,53.3454837 81.1107201,53.1551614 L81.9140397,52.7479127 L82,52.7479127 L82,40.2654338 C82,31.7766524 75.0924747,24.8697967 66.6028703,24.8697967 Z M20.5025583,24.0512064 C22.8552103,24.0512064 25.0441283,23.3646138 26.8984151,22.1950529 C27.4878572,18.3507482 29.5488581,14.9914582 32.4929989,12.7034983 C32.5052789,12.478386 32.526769,12.2553201 32.526769,12.0281613 C32.526769,5.3863242 27.1419693,0.00306971364 20.5025583,0.00306971364 C13.859054,0.00306971364 8.47630101,5.3863242 8.47630101,12.0281613 C8.47630101,18.6669287 13.859054,24.0512064 20.5025583,24.0512064 Z M31.3028579,35.1922204 C28.5807812,32.5819406 26.8574816,28.9535391 26.7316111,24.927098 C26.3560464,24.8994706 25.9845751,24.8697967 25.601847,24.8697967 L15.398153,24.8697967 C6.90752527,24.8697967 0,31.7766524 0,40.2654338 L0,52.7458663 L0.0317234494,52.938235 L0.891326594,53.209393 C7.39156371,55.2384737 13.1928616,56.1737132 18.2317734,56.4684057 L18.2317734,52.6998206 C18.23382,44.434105 23.7537002,37.4382276 31.3028579,35.1922204 Z" id="Shape"></path>
                        </g>
                    </g>
                </g>
            </g>
        </g>
    </g>
</svg>
