<?xml version="1.0" encoding="UTF-8"?>
<svg width="103px" height="88px" viewBox="0 0 103 88" version="1.1" xmlns="http://www.w3.org/2000/svg" xmlns:xlink="http://www.w3.org/1999/xlink">
    <!-- Generator: Sketch 56.3 (81716) - https://sketch.com -->
    <title>multiple-users-silhouette</title>
    <desc>Created with Sketch.</desc>
    <defs>
        <path d="M57.3721326,13.7309626 C61.7680327,16.4868833 64.850502,21.1504753 65.411706,26.5638486 C67.2044739,27.4014207 69.1941971,27.8830839 71.3037546,27.8830839 C79.0051818,27.8830839 85.2472413,21.6416295 85.2472413,13.9421352 C85.2472413,6.24145448 79.0051818,0 71.3037546,0 C63.675889,0.00237272552 57.4884074,6.13230911 57.3721326,13.7309626 Z M48.2374402,42.2772233 C55.9388675,42.2772233 62.180927,36.0345825 62.180927,28.3350882 C62.180927,20.6355938 55.937681,14.3941394 48.2374402,14.3941394 C40.5371995,14.3941394 34.2915805,20.6367802 34.2915805,28.3362745 C34.2915805,36.0357688 40.5371995,42.2772233 48.2374402,42.2772233 Z M54.1520319,43.2274999 L42.3204756,43.2274999 C32.4762695,43.2274999 24.4675446,51.2366349 24.4675446,61.0798867 L24.4675446,75.5475806 L24.5043254,75.7741758 L25.5009667,76.0861893 C34.8954977,79.0212507 43.0572783,80 49.7751154,80 C62.8963731,80 70.5016956,76.2593982 70.9703543,76.0209393 L71.9017394,75.5499533 L72.0014047,75.5499533 L72.0014047,61.0798867 C72.0049629,51.2366349 63.996238,43.2274999 54.1520319,43.2274999 Z M77.2207192,28.8345469 L65.4805217,28.8345469 C65.3535686,33.5313571 63.3484211,37.7607403 60.1769661,40.8025744 C68.9272396,43.4042679 75.3294737,51.5178029 75.3294737,61.1012412 L75.3294737,65.5595925 C86.9213615,65.1348746 93.6012313,61.8498361 94.0414146,61.6291727 L94.9727996,61.1570003 L95.0724638,61.1570003 L95.0724638,46.684561 C95.0724638,36.8424955 87.0637388,28.8345469 77.2207192,28.8345469 Z M23.7710821,27.8854567 C26.4987945,27.8854567 29.0366705,27.0894073 31.1865682,25.7333946 C31.8699794,21.2762297 34.2595456,17.3814008 37.6730422,14.7286937 C37.6872799,14.4676939 37.7121959,14.2090668 37.7121959,13.9456942 C37.7121959,6.24501357 31.4689499,0.00355908828 23.7710821,0.00355908828 C16.0684684,0.00355908828 9.82759537,6.24501357 9.82759537,13.9456942 C9.82759537,21.6428158 16.0684684,27.8854567 23.7710821,27.8854567 Z M36.2931685,40.8025744 C33.1371377,37.776163 31.1391091,33.5693207 30.9931723,28.9009832 C30.557735,28.8689514 30.1270436,28.8345469 29.6833009,28.8345469 L17.852931,28.8345469 C8.00872495,28.8345469 0,36.8424955 0,46.684561 L0,61.1546276 L0.0367808109,61.3776638 L1.03342214,61.6920499 C8.56992894,64.0446072 15.2960714,65.1289428 21.138288,65.4706153 L21.138288,61.1012412 C21.1406609,51.5178029 27.540522,43.4066407 36.2931685,40.8025744 Z" id="path-1"></path>
        <filter x="-7.4%" y="-6.2%" width="114.7%" height="117.5%" filterUnits="objectBoundingBox" id="filter-2">
            <feOffset dx="0" dy="2" in="SourceAlpha" result="shadowOffsetOuter1"></feOffset>
            <feGaussianBlur stdDeviation="2" in="shadowOffsetOuter1" result="shadowBlurOuter1"></feGaussianBlur>
            <feColorMatrix values="0 0 0 0 0   0 0 0 0 0   0 0 0 0 0  0 0 0 0.5 0" type="matrix" in="shadowBlurOuter1"></feColorMatrix>
        </filter>
    </defs>
    <g id="Page-1" stroke="none" stroke-width="1" fill="none" fill-rule="evenodd">
        <g id="landing" transform="translate(-398.000000, -3441.000000)" fill-rule="nonzero">
            <g id="Group-11" transform="translate(356.000000, 3438.000000)">
                <g id="Group-8" transform="translate(0.000000, 5.000000)">
                    <g id="multiple-users-silhouette" transform="translate(46.000000, 0.000000)">
                        <g id="Shape">
                            <use fill="black" fill-opacity="1" filter="url(#filter-2)" xlink:href="#path-1"></use>
                            <use fill="#F1CFCC" xlink:href="#path-1"></use>
                        </g>
                    </g>
                </g>
            </g>
        </g>
    </g>
</svg>